 <svg
   xmlns="http://www.w3.org/2000/svg"
   width="21.333"
   height="37.219"
   viewBox="0 0 20 34.892"
   >
   <g transform="translate(-814.6 -274.39) translate(-151.18 -57.398) scale(1.1856)">
      <path
         fill="#ff4646"
         stroke="#d73534"
         d="M817.11 282.97c-1.258 1.343-2.046 3.299-2.016 5.139.064 3.845 1.797 5.3 4.569 10.592.998 2.328 2.04 4.792 3.031 8.873.138.602.272 1.16.334 1.21.062.048.197-.513.334-1.115.991-4.081 2.033-6.543 3.032-8.872 2.77-5.291 4.504-6.747 4.568-10.592.03-1.84-.76-3.797-2.018-5.14-1.437-1.534-3.605-2.67-5.916-2.717-2.311-.047-4.48 1.088-5.918 2.622z"
      ></path>
      <circle cx="823.03" cy="288.25" r="3.035" fill="#590000"></circle>
   </g>
</svg>
